# xmcd
#
# Track frame offsets:
#	150
#	18197
#	40040
#	57277
#	76405
#	97420
#	115350
#	135330
#	153792
#	172495
#	192630
#	213390
#	232672
#	250672
#	269887
#	286955
#	303335
#	323682
#
# Disc length: 4533 seconds
#
# Revision: 5
# Processed by: cddbd v1.5.1PL0 Copyright (c) Steve Scherf et al.
# Submitted via: MusicWizard 7.2.0
#
DISCID=fd11b312
DTITLE=Braxton, Toni - Ultimate
DYEAR=2003
DGENRE=Blues Rock
TTITLE0=Give U My Heart (Featuring Babyface)
TTITLE1=Love Shoulda Brought You Home
TTITLE2=Another Sad Love Song
TTITLE3=Breathe Again
TTITLE4=Seven Whole Days (Live)
TTITLE5=You Mean The World To Me
TTITLE6=How Many Ways
TTITLE7=You're Making Me High
TTITLE8=Let It Flow
TTITLE9=Un-Break My Heart
TTITLE10=I Love Me Some Him
TTITLE11=I Don't Want To
TTITLE12=He Wasn't Man Enough
TTITLE13=Just Be A Man About It
TTITLE14=Hit The Freeway (Featuring Loon)
TTITLE15=Whatcha Need
TTITLE16=The Little Things
TTITLE17=Un-Break My Heart (Soul-Hex Anthem Radio Edit)
EXTD=YEAR: 2003
EXTT0=
EXTT1=
EXTT2=
EXTT3=
EXTT4=
EXTT5=
EXTT6=
EXTT7=
EXTT8=
EXTT9=
EXTT10=
EXTT11=
EXTT12=
EXTT13=
EXTT14=
EXTT15=
EXTT16=
EXTT17=
PLAYORDER=
